<svg width="182" height="44" viewBox="0 0 182 44" fill="none" xmlns="http://www.w3.org/2000/svg">
<path d="M24.776 42.4948C11.291 41.0668 0.958006 36.0198 1.15801 26.8648C1.62271 11.5918 16.773 3.60185 28.134 3.24685C33.5754 3.09323 37.9363 5.63315 38.322 9.03565C39.1921 16.705 19.103 24.6656 19.103 24.6656C19.103 24.6656 36.961 18.0953 43.763 26.8653C46.5476 30.4556 31.954 37.5163 31.954 37.5163C31.954 37.5163 23.167 40.8723 24.3128 37.2848C26.0784 31.7565 41.1028 27.1838 42.7208 26.9808C45.89 26.5839 49.8162 26.5724 50.7094 27.0966C52.046 27.881 49.0306 31.2356 49.7832 31.9592C50.5357 32.6828 53.6038 29.4121 53.7196 29.991C53.8354 30.5699 53.0828 32.6249 54.2985 33.0012C55.5141 33.3775 56.614 31.9013 58.5822 31.4961C60.5504 31.0909 60.4057 31.0619 62.1713 31.3803C63.9369 31.6987 64.2842 32.0171 65.6446 32.7696C67.005 33.5221 66.5129 34.9983 67.6128 34.3905C68.7127 33.7827 69.0311 30.2226 70.0441 30.3383C71.0571 30.4541 70.073 35.7219 71.665 34.8536C73.2569 33.9853 76.4118 26.865 76.4118 26.865C76.4118 26.865 75.5841 30.9098 76.4118 30.8014C79.5406 30.3915 84.5161 28.2254 90.8838 27.4439C97.2515 26.6624 99.5479 27.0869 101.883 27.6754C103.803 28.1595 104.546 29.9909 104.546 29.9909" stroke="white" stroke-width="1.4" stroke-linecap="round" stroke-linejoin="round"/>
<path d="M113.69 15.7506C113.69 15.7506 112.59 12.972 110.101 13.6666C104.271 15.2936 93.8829 21.3474 93.6609 29.2966C93.202 45.5876 114.747 40.4367 116.353 40.2957C129.952 39.0995 133.737 30.3403 133.719 25.8236C133.662 11.5156 114.645 15.5196 112.648 15.7506C104.748 16.6666 102.169 17.3235 102.169 17.3235" stroke="white" stroke-width="1.4"/>
<path d="M119.71 1.04688C117.17 14.9619 114.59 28.8809 117.17 42.4949" stroke="white" stroke-width="1.4" stroke-linecap="round"/>
<path d="M133.61 27.7907C126.987 27.3806 121.018 28.1689 116.244 31.1482" stroke="white" stroke-width="1.4"/>
<path d="M131.52 32.7696C131.52 32.7696 135.465 32.6369 139.856 31.8434C142.258 31.4092 144.863 30.1068 147.729 29.991C150.594 29.8752 149.465 31.4382 151.318 31.3803C155.95 31.2355 159.306 31.0908 166.253 30.6856C173.199 30.2804 176.006 27.9215 179.104 29.7594C180.812 30.7724 180.493 32.8854 180.493 32.8854" stroke="white" stroke-width="1.4" stroke-linecap="round"/>
<path d="M151.7 27.5816C149.38 27.7156 149.12 30.1066 149.12 30.1066L153.52 31.0326C153.52 31.0326 155.79 28.2856 152.82 27.6756C152.4 27.5886 152.03 27.5626 151.7 27.5816V27.5816Z" stroke="white" stroke-width="1.4"/>
</svg>
